<svg width="18" height="18" viewBox="0 0 18 18" fill="none" xmlns="http://www.w3.org/2000/svg">
<path d="M3.375 5.48523H14.6223" stroke="currentColor" stroke-linecap="round" stroke-linejoin="round"/>
<path d="M4.07812 5.48523L4.78108 13.9207C4.78108 14.2936 4.9292 14.6512 5.19286 14.9148C5.45652 15.1785 5.81412 15.3266 6.18699 15.3266H11.8106C12.1835 15.3266 12.5411 15.1785 12.8048 14.9148C13.0684 14.6512 13.2165 14.2936 13.2165 13.9207L13.9195 5.48523" stroke="currentColor" stroke-linecap="round" stroke-linejoin="round"/>
<path d="M6.89062 5.48528V3.37642C6.89062 3.18998 6.96469 3.01118 7.09652 2.87935C7.22835 2.74752 7.40714 2.67346 7.59358 2.67346H10.4054C10.5918 2.67346 10.7706 2.74752 10.9025 2.87935C11.0343 3.01118 11.1084 3.18998 11.1084 3.37642V5.48528" stroke="currentColor" stroke-linecap="round" stroke-linejoin="round"/>
<path d="M7.59375 9L10.4056 11.8118M10.4056 9L7.59375 11.8118" stroke="currentColor" stroke-linecap="round" stroke-linejoin="round"/>
</svg>
